0 Trabado: dos pares de ladrillos Technic unidos con pin y ladrillos en el medio
0 Name: trabado.ldr
0 Author: lego-lab
0 // Abajo, dos ladrillos 1x2 con agujero unidos por un pin con collar; en el medio, dos 1x2; arriba,
0 // otro par unido con pin. El par de arriba solo puede bajar entero (pin ya puesto): pieza por pieza
0 // no hay orden posible. Tiene que dar el aviso requiere-subarmado (ver trabado-con-subarmado.mpd).
1 71 0 0 0 1 0 0 0 1 0 0 0 1 3700.dat
0 STEP
1 0 0 10 10 0 0 1 0 1 0 -1 0 0 3673.dat
0 STEP
1 71 0 0 20 1 0 0 0 1 0 0 0 1 3700.dat
0 STEP
1 4 0 -24 0 1 0 0 0 1 0 0 0 1 3004.dat
1 4 0 -24 20 1 0 0 0 1 0 0 0 1 3004.dat
0 STEP
1 71 0 -48 0 1 0 0 0 1 0 0 0 1 3700.dat
0 STEP
1 0 0 -38 10 0 0 1 0 1 0 -1 0 0 3673.dat
0 STEP
1 71 0 -48 20 1 0 0 0 1 0 0 0 1 3700.dat
0 STEP
